<svg width="46" height="32" viewBox="0 0 46 32" fill="none" xmlns="http://www.w3.org/2000/svg">
<rect x="10.0217" y="5.6001" width="22.4" height="20.8" fill="white"/>
<path d="M35.8297 0H9.39196C4.20492 0 0 4.20492 0 9.39196V22.608C0 27.7951 4.20492 32 9.39196 32H35.8297C41.0167 32 45.2217 27.7951 45.2217 22.608V9.39196C45.2217 4.20492 41.0167 0 35.8297 0ZM29.478 16.643L17.1122 22.5407C16.7827 22.6979 16.4021 22.4577 16.4021 22.0926V9.92854C16.4021 9.55833 16.7927 9.31839 17.1229 9.48574L29.4887 15.7521C29.8563 15.9384 29.85 16.4657 29.478 16.643Z" fill="#F61C0D"/>
</svg>
