<?xml version="1.0" encoding="UTF-8"?>
<svg width="9px" height="11px" viewBox="0 0 9 11" version="1.1" xmlns="http://www.w3.org/2000/svg" xmlns:xlink="http://www.w3.org/1999/xlink">
    <g stroke="none" stroke-width="1" fill="none" fill-rule="evenodd" opacity="0.418503534">
        <g transform="translate(-17.000000, -155.000000)" fill="#FFFFFF" fill-rule="nonzero">
            <g transform="translate(16.000000, 155.724591)">
                <path d="M9.05692128,4.03480421 C9.22036186,2.989345 8.38853398,2.42733088 7.25112097,2.05240927 L7.62008102,0.636202426 L6.7192335,0.421365223 L6.36002344,1.80025177 C6.12320137,1.74378028 5.87996484,1.69050065 5.63826779,1.63771208 L6.00004364,0.249740989 L5.09970927,0.0349037865 L4.73049264,1.45061957 C4.53446658,1.40789766 4.34203261,1.3656668 4.15524338,1.32122619 L4.15626969,1.31680668 L2.91391603,1.01996305 L2.6742716,1.94069392 C2.6742716,1.94069392 3.3426589,2.08727428 3.32854708,2.09635882 C3.69340187,2.18352134 3.75934257,2.41456341 3.74830969,2.59772747 L3.32803392,4.21109348 C3.35317862,4.21723169 3.38576411,4.2260707 3.42168511,4.23982028 C3.39166542,4.23269996 3.35959309,4.22484306 3.32649445,4.21723169 L2.73738994,6.47731906 C2.69274526,6.58338725 2.57959409,6.74248955 2.32455495,6.6820896 C2.3335352,6.69461154 1.66976632,6.52568812 1.66976632,6.52568812 L1.22254979,7.51246608 L2.39485749,7.79212274 C2.61294931,7.84442025 2.8266793,7.89917305 3.03707377,7.95073398 L2.66426504,9.38314568 L3.56408625,9.59798288 L3.93330288,8.18079393 C4.17910519,8.24463127 4.41772331,8.30355805 4.65120985,8.35904743 L4.28327611,9.76960712 L5.18412363,9.98444432 L5.55693236,8.55473343 C7.09306854,8.83291691 8.24818548,8.72071051 8.73440196,7.39117514 C9.1261975,6.32067205 8.71490198,5.70316854 7.90667934,5.30050224 C8.49527069,5.17061781 8.93863854,4.80011571 9.05692128,4.03480421 L9.05692128,4.03480421 Z M6.99864761,6.79675129 C6.72025981,7.86725438 4.83671619,7.28854434 4.22605908,7.14343715 L4.72074265,5.24574945 C5.33139976,5.39159322 7.28960776,5.68033442 6.99864761,6.79675129 Z M7.27729199,4.01933593 C7.02327916,4.9931009 5.45558381,4.49836151 4.94704499,4.37707056 L5.39554441,2.65591766 C5.90408323,2.77720861 7.54182455,3.00358564 7.27729199,4.01933593 L7.27729199,4.01933593 Z"></path>
            </g>
        </g>
    </g>
</svg>