<svg width="60" height="60" viewBox="0 0 60 60" fill="currentColor" xmlns="http://www.w3.org/2000/svg">
<path d="M58.9788 4.05712L55.9502 1.02854C55.8359 0.914258 55.6931 0.864258 55.5431 0.864258C55.3931 0.864258 55.2502 0.921401 55.1359 1.02854L49.7002 6.46426C47.3372 4.86321 44.5474 4.00959 41.6931 4.01426C38.0359 4.01426 34.3788 5.40712 31.5859 8.19997L24.3074 15.4785C24.201 15.5859 24.1414 15.731 24.1414 15.8821C24.1414 16.0333 24.201 16.1783 24.3074 16.2857L43.7145 35.6928C43.8288 35.8071 43.9717 35.8571 44.1217 35.8571C44.2645 35.8571 44.4145 35.8 44.5288 35.6928L51.8074 28.4143C56.7288 23.4857 57.3074 15.8643 53.5431 10.3071L58.9788 4.8714C59.2002 4.64283 59.2002 4.27854 58.9788 4.05712ZM48.3645 24.9785L44.1217 29.2214L30.7788 15.8785L35.0217 11.6357C36.8002 9.85711 39.1717 8.8714 41.6931 8.8714C44.2145 8.8714 46.5788 9.84997 48.3645 11.6357C50.1431 13.4143 51.1288 15.7857 51.1288 18.3071C51.1288 20.8285 50.1431 23.1928 48.3645 24.9785ZM34.7788 32.4785C34.6714 32.3722 34.5264 32.3125 34.3752 32.3125C34.2241 32.3125 34.079 32.3722 33.9716 32.4785L29.2145 37.2357L22.7645 30.7857L27.5288 26.0214C27.7502 25.8 27.7502 25.4357 27.5288 25.2143L24.9288 22.6143C24.8214 22.5079 24.6764 22.4483 24.5252 22.4483C24.3741 22.4483 24.2291 22.5079 24.1217 22.6143L19.3574 27.3785L16.2859 24.3071C16.2326 24.2537 16.1691 24.2117 16.0991 24.1835C16.0292 24.1552 15.9542 24.1414 15.8788 24.1428C15.7359 24.1428 15.5859 24.2 15.4717 24.3071L8.20022 31.5857C3.27879 36.5143 2.70022 44.1357 6.46451 49.6928L1.02879 55.1285C0.922449 55.2359 0.862793 55.381 0.862793 55.5321C0.862793 55.6833 0.922449 55.8283 1.02879 55.9357L4.05736 58.9643C4.17165 59.0785 4.31451 59.1285 4.46451 59.1285C4.61451 59.1285 4.75736 59.0714 4.87165 58.9643L10.3074 53.5285C12.7145 55.1643 15.5145 55.9785 18.3145 55.9785C21.9717 55.9785 25.6288 54.5857 28.4217 51.7928L35.7002 44.5143C35.9216 44.2928 35.9216 43.9286 35.7002 43.7071L32.6288 40.6357L37.3931 35.8714C37.6145 35.65 37.6145 35.2857 37.3931 35.0643L34.7788 32.4785ZM24.9788 48.3643C24.1046 49.243 23.0649 49.9397 21.9198 50.4142C20.7747 50.8886 19.5469 51.1314 18.3074 51.1285C15.7859 51.1285 13.4217 50.15 11.6359 48.3643C10.7572 47.49 10.0605 46.4503 9.58604 45.3052C9.11157 44.1601 8.86876 42.9323 8.87165 41.6928C8.87165 39.1714 9.85022 36.8071 11.6359 35.0214L15.8788 30.7785L29.2217 44.1214L24.9788 48.3643Z" />
</svg>
